<svg width="1153" height="380" xmlns="http://www.w3.org/2000/svg" xmlns:xlink="http://www.w3.org/1999/xlink" xml:space="preserve" overflow="hidden"><defs><clipPath id="clip0"><rect x="675" y="1161" width="1153" height="380"/></clipPath></defs><g clip-path="url(#clip0)" transform="translate(-675 -1161)"><path d="M717.937 1263.58 717.937 1298.41 727.464 1298.41C738.395 1298.41 746.032 1297.12 750.374 1294.54 755.277 1291.64 757.729 1287.2 757.729 1281.24 757.729 1271.64 752.785 1266 742.897 1264.3 739.762 1263.82 734.376 1263.58 726.74 1263.58ZM1133.93 1202.61C1124.07 1202.61 1115.14 1205.38 1107.13 1210.92 1099.13 1216.46 1093.43 1223.83 1090.03 1233.05 1088.09 1238.31 1087.12 1243.64 1087.12 1249.06 1087.12 1260.22 1090.84 1270.2 1098.28 1279.02 1107.5 1289.93 1119.38 1295.39 1133.93 1295.39 1148.48 1295.39 1160.41 1289.97 1169.7 1279.14 1177.14 1270.49 1180.86 1260.46 1180.86 1249.06 1180.86 1237.42 1177.14 1227.35 1169.7 1218.86 1160.16 1208.03 1148.24 1202.61 1133.93 1202.61ZM1289.03 1198.62 1289.03 1239.75 1297.04 1239.75C1306.1 1239.75 1312.62 1237.86 1316.58 1234.08 1320.87 1229.98 1323.01 1224.99 1323.01 1219.12 1323.01 1213.25 1320.87 1208.31 1316.58 1204.29 1312.53 1200.51 1306.02 1198.62 1297.04 1198.62ZM717.937 1198.62 717.937 1230.92 725.765 1230.92C733.15 1230.92 738.448 1229.1 741.66 1225.47 744.229 1222.57 745.513 1218.98 745.513 1214.71 745.513 1207.21 742.141 1202.25 735.397 1199.83 732.989 1199.02 729.778 1198.62 725.765 1198.62ZM1394.02 1165.96 1488 1165.96 1488 1201.76 1436.96 1201.76 1436.96 1229.95 1485.22 1229.95 1485.22 1265.75 1436.96 1265.75 1436.96 1295.27 1488 1295.27 1488 1331.07 1394.02 1331.07ZM1246.09 1165.96 1312.85 1165.96C1332.37 1165.96 1346.8 1171.81 1356.15 1183.5 1363.73 1192.93 1367.52 1204.02 1367.52 1216.76 1367.52 1231.36 1363.17 1243.01 1354.46 1251.72 1348.9 1257.29 1341.24 1261.16 1331.48 1263.33L1383.37 1331.07 1330.03 1331.07 1289.03 1267.69 1289.03 1331.07 1246.09 1331.07ZM936.463 1165.96 1031.04 1165.96 1031.04 1201.76 979.4 1201.76 979.4 1229.95 1026.45 1229.95 1026.45 1265.75 979.4 1265.75 979.4 1331.07 936.463 1331.07ZM822.933 1165.96 916.91 1165.96 916.91 1201.76 865.87 1201.76 865.87 1229.95 914.128 1229.95 914.128 1265.75 865.87 1265.75 865.87 1295.27 916.91 1295.27 916.91 1331.07 822.933 1331.07ZM675 1165.96 738.861 1165.96C769.824 1165.96 785.305 1180.31 785.305 1209.02 785.305 1217.65 783.612 1224.87 780.225 1230.67 777.403 1235.59 773.049 1239.79 767.163 1243.25 780.339 1246 789.337 1251.28 794.157 1259.1 798.496 1266.28 800.665 1274.62 800.665 1284.14 800.665 1296.48 797.158 1306.52 790.143 1314.26 779.983 1325.47 764.502 1331.07 743.699 1331.07L675 1331.07ZM1133.93 1161C1162.96 1161 1185.98 1170.64 1202.99 1189.91 1217.91 1206.84 1225.37 1226.56 1225.37 1249.06 1225.37 1271.48 1217.91 1291.16 1202.99 1308.09 1185.98 1327.36 1162.96 1337 1133.93 1337 1104.98 1337 1082 1327.36 1064.99 1308.09 1050.07 1291.16 1042.62 1271.48 1042.62 1249.06 1042.62 1238.82 1044.63 1228.32 1048.66 1217.55 1052.69 1206.78 1058.1 1197.57 1064.87 1189.91 1081.88 1170.64 1104.9 1161 1133.93 1161Z" fill="#D39F2B" fill-rule="evenodd"/><path d="M1604.06 1258.77C1594.95 1264.03 1590.39 1271.87 1590.39 1282.29 1590.39 1286.6 1592.35 1290.6 1596.26 1294.3 1600.17 1298.01 1604.11 1299.86 1608.06 1299.86 1618.46 1299.86 1627.32 1296.29 1634.62 1289.14ZM1618.5 1191.71C1615.24 1191.71 1612.36 1192.57 1609.86 1194.3 1606.77 1196.45 1605.22 1199.47 1605.22 1203.34 1605.22 1207.91 1606.73 1211.83 1609.74 1215.1L1617.34 1223.5 1625.73 1217.94C1630.11 1215.01 1632.3 1210.79 1632.3 1205.28 1632.3 1201.32 1630.9 1198.07 1628.11 1195.52 1625.32 1192.98 1622.11 1191.71 1618.5 1191.71ZM1617.6 1166C1631.18 1166 1642.44 1169.23 1651.39 1175.69 1660.93 1182.58 1665.7 1191.71 1665.7 1203.08 1665.7 1217.73 1655.34 1230.86 1634.62 1242.49L1654.74 1262.65C1657.83 1256.7 1659.85 1251.28 1660.8 1246.37L1691.49 1256.32C1688.74 1267.43 1684.44 1277.34 1678.59 1286.04 1682.89 1289.74 1688.69 1293.7 1696 1297.92L1680.14 1330.74C1670.68 1325.14 1662.86 1319.46 1656.67 1313.69 1643.86 1325.23 1628.09 1331 1609.35 1331 1593.62 1331 1580.59 1327.17 1570.28 1319.5 1558.76 1311.06 1553 1299.21 1553 1283.97 1553 1265.88 1564.43 1250.72 1587.3 1238.49 1580.42 1230.3 1576.3 1225.01 1574.92 1222.59 1571.65 1217.08 1570.02 1210.66 1570.02 1203.34 1570.02 1192.57 1574.88 1183.57 1584.59 1176.34 1593.88 1169.45 1604.88 1166 1617.6 1166Z" fill="#599A50" fill-rule="evenodd"/><path d="M869.571 1427.01 851.555 1479.59 887.344 1479.59ZM1501.84 1411.78 1501.84 1505.22 1511.66 1505.22C1528.54 1505.22 1541.18 1499.6 1549.58 1488.37 1555.96 1479.81 1559.15 1469.83 1559.15 1458.44 1559.15 1447.05 1555.96 1437.11 1549.58 1428.63 1541.1 1417.4 1528.46 1411.78 1511.66 1411.78ZM1353.96 1408.64 1353.96 1449.74 1361.97 1449.74C1371.03 1449.74 1377.54 1447.85 1381.5 1444.07 1385.79 1439.97 1387.93 1434.99 1387.93 1429.13 1387.93 1423.26 1385.79 1418.32 1381.5 1414.3 1377.46 1410.53 1370.94 1408.64 1361.97 1408.64ZM1734.05 1376 1828 1376 1828 1411.78 1776.98 1411.78 1776.98 1439.94 1825.22 1439.94 1825.22 1475.73 1776.98 1475.73 1776.98 1505.22 1828 1505.22 1828 1541 1734.05 1541ZM1624 1376 1666.92 1376 1666.92 1505.22 1718.43 1505.22 1718.43 1541 1624 1541ZM1458.92 1376 1522.28 1376C1537.75 1376 1552.1 1380.31 1565.32 1388.93 1578.3 1397.31 1588.25 1408.52 1595.18 1422.54 1600.83 1434.14 1603.65 1446.11 1603.65 1458.44 1603.65 1475.6 1598.47 1491.5 1588.11 1506.13 1577.75 1520.75 1564.51 1530.89 1548.39 1536.53 1539.85 1539.51 1531.14 1541 1522.28 1541L1458.92 1541ZM1311.04 1376 1377.78 1376C1397.28 1376 1411.71 1381.84 1421.06 1393.53 1428.64 1402.96 1432.43 1414.04 1432.43 1426.77 1432.43 1441.36 1428.07 1453 1419.37 1461.7 1413.81 1467.26 1406.15 1471.13 1396.4 1473.31L1448.27 1541 1394.95 1541 1353.96 1477.66 1353.96 1541 1311.04 1541ZM1197.54 1376 1291.49 1376 1291.49 1411.78 1240.46 1411.78 1240.46 1439.94 1288.71 1439.94 1288.71 1475.73 1240.46 1475.73 1240.46 1505.22 1291.49 1505.22 1291.49 1541 1197.54 1541ZM1071.89 1376 1185.3 1376 1185.3 1411.78 1149.76 1411.78 1149.76 1541 1106.83 1541 1106.83 1411.78 1071.89 1411.78ZM967.117 1376 1061.67 1376 1061.67 1411.78 1010.04 1411.78 1010.04 1439.94 1057.07 1439.94 1057.07 1475.73 1010.04 1475.73 1010.04 1541 967.117 1541ZM846.477 1376 893.269 1376 955.416 1541 909.591 1541 898.951 1512.23 839.706 1512.23 828.341 1541 783 1541Z" fill="#3E77B0" fill-rule="evenodd"/></g></svg>