<svg width="655" height="389" xmlns="http://www.w3.org/2000/svg" xmlns:xlink="http://www.w3.org/1999/xlink" xml:space="preserve" overflow="hidden"><defs><clipPath id="clip0"><rect x="1550" y="954" width="655" height="389"/></clipPath></defs><g clip-path="url(#clip0)" transform="translate(-1550 -954)"><path d="M1732.27 1039.5C1709.32 1037.89 1689.83 1046.51 1673.77 1065.34 1657.72 1084.18 1648.61 1109.03 1646.46 1139.89 1644.8 1163.56 1647.58 1184.3 1654.8 1202.1 1662.02 1219.91 1671.97 1233.59 1684.67 1243.14 1697.36 1252.69 1710.86 1257.97 1725.16 1258.97 1751.64 1260.82 1772.92 1250.65 1789.01 1228.47 1805.09 1206.29 1818.39 1180.2 1828.9 1150.23 1820.54 1125.77 1808.77 1101.65 1793.61 1077.87 1778.45 1054.09 1758 1041.3 1732.27 1039.5ZM2030.28 1038.46C2003.8 1036.61 1982.52 1046.77 1966.44 1068.96 1950.36 1091.14 1937.06 1117.22 1926.54 1147.2 1934.91 1171.66 1946.67 1195.78 1961.83 1219.56 1976.99 1243.34 1997.44 1256.13 2023.18 1257.93 2046.12 1259.54 2065.62 1250.92 2081.67 1232.08 2097.73 1213.25 2106.83 1188.4 2108.99 1157.54 2110.65 1133.87 2107.87 1113.13 2100.65 1095.32 2093.43 1077.52 2083.47 1063.84 2070.78 1054.29 2058.09 1044.74 2044.59 1039.46 2030.28 1038.46ZM2031 955.268C2065.26 957.664 2096.55 968.737 2124.87 988.489 2153.18 1008.24 2174.15 1033.81 2187.75 1065.19 2201.35 1096.57 2206.91 1130.03 2204.42 1165.57 2201.99 1200.33 2192.41 1231.77 2175.68 1259.87 2158.95 1287.98 2137.33 1309.17 2110.84 1323.45 2084.35 1337.73 2069.22 1344.73 2024.34 1341.59 1979.46 1338.46 1949.73 1321.21 1925.46 1297.52 1913.32 1285.68 1903.96 1270.72 1896.33 1255.88L1887.52 1237.18 1863.81 1276.69C1854.69 1289.82 1845.21 1301.32 1835.92 1309.69 1798.79 1343.18 1758.7 1344.56 1724.44 1342.16 1690.18 1339.76 1658.9 1328.69 1630.58 1308.94 1602.26 1289.19 1581.3 1263.62 1567.7 1232.24 1554.1 1200.86 1548.54 1167.4 1551.02 1131.86 1553.45 1097.1 1563.04 1065.66 1579.77 1037.55 1596.5 1009.45 1618.11 988.254 1644.6 973.978 1671.1 959.702 1686.22 952.696 1731.1 955.834 1775.99 958.972 1805.72 976.219 1829.99 999.903 1842.13 1011.75 1851.49 1026.71 1859.11 1041.55L1867.93 1060.25 1891.64 1020.74C1900.75 1007.61 1910.24 996.112 1919.52 987.739 1956.65 954.248 1996.75 952.873 2031 955.268Z" fill="#555555" fill-rule="evenodd"/></g></svg>