<svg width="1444" height="1444" xmlns="http://www.w3.org/2000/svg" xmlns:xlink="http://www.w3.org/1999/xlink" xml:space="preserve" overflow="hidden"><defs><clipPath id="clip0"><rect x="1478" y="516" width="1444" height="1444"/></clipPath></defs><g clip-path="url(#clip0)" transform="translate(-1478 -516)"><path d="M2080.4 1435.29 2288.87 1435.29 2288.87 1619 2080.4 1619ZM2209.48 856C2283.92 856 2344.02 871.522 2389.78 902.568 2451.93 944.53 2483 1000.48 2483 1070.42 2483 1099.42 2474.98 1127.39 2458.93 1154.34 2442.88 1181.29 2410.09 1214.22 2360.58 1253.11 2326.09 1280.4 2304.32 1302.32 2295.27 1318.87 2286.22 1335.41 2281.7 1356.99 2281.7 1383.6L2087.06 1383.6 2087.06 1364.16C2087.06 1331.06 2090.81 1304.2 2098.32 1283.56 2105.84 1262.92 2117.02 1244.07 2131.88 1227.01 2146.73 1209.95 2180.11 1179.93 2232.01 1136.94 2259.67 1114.43 2273.5 1093.79 2273.5 1075.02 2273.5 1056.26 2267.95 1041.68 2256.86 1031.27 2245.76 1020.86 2228.94 1015.66 2206.4 1015.66 2182.16 1015.66 2162.1 1023.68 2146.22 1039.71 2130.34 1055.75 2120.18 1083.72 2115.74 1123.64L1917 1099.07C1923.83 1026.07 1950.38 967.303 1996.65 922.782 2042.92 878.26 2113.86 856 2209.48 856Z" fill="#777777" fill-rule="evenodd"/><path d="M1478 1237.5C1478 839.027 1801.25 516 2200 516 2598.75 516 2922 839.027 2922 1237.5 2922 1635.97 2598.75 1959 2200 1959 1801.25 1959 1478 1635.97 1478 1237.5ZM1626.25 1237.5C1626.25 1554.1 1883.13 1810.75 2200 1810.75 2516.87 1810.75 2773.75 1554.1 2773.75 1237.5 2773.75 920.906 2516.87 664.255 2200 664.255 1883.13 664.255 1626.25 920.906 1626.25 1237.5Z" fill="#777777" fill-rule="evenodd"/></g></svg>