<svg width="1210" height="1189" xmlns="http://www.w3.org/2000/svg" xmlns:xlink="http://www.w3.org/1999/xlink" xml:space="preserve" overflow="hidden"><defs><clipPath id="clip0"><rect x="1595" y="643" width="1210" height="1189"/></clipPath></defs><g clip-path="url(#clip0)" transform="translate(-1595 -643)"><path d="M2200 1022.8C2081.47 1022.8 1985.39 1118.92 1985.39 1237.5 1985.39 1356.08 2081.47 1452.2 2200 1452.2 2318.53 1452.2 2414.61 1356.08 2414.61 1237.5 2414.61 1118.92 2318.53 1022.8 2200 1022.8ZM2019.27 643 2380.73 643 2403.58 806.123 2427.5 817.649 2471.49 845.485 2624.27 783.664 2805 1096.84 2674.59 1198.69 2677.28 1237.5 2675.29 1276.86 2805 1378.16 2624.27 1691.34 2471.88 1629.67 2466.85 1633.43C2447.81 1646.31 2427.79 1657.84 2406.92 1667.9L2403.53 1669.23 2380.73 1832 2019.27 1832 1996.47 1669.23 1993.08 1667.9C1972.21 1657.84 1952.19 1646.31 1933.15 1633.43L1928.12 1629.67 1775.73 1691.34 1595 1378.16 1724.71 1276.86 1722.72 1237.5 1725.41 1198.69 1595 1096.84 1775.73 783.664 1928.51 845.485 1972.5 817.649 1996.42 806.123Z" fill="#555555" fill-rule="evenodd"/></g></svg>