<svg width="1288" height="493" xmlns="http://www.w3.org/2000/svg" xmlns:xlink="http://www.w3.org/1999/xlink" xml:space="preserve" overflow="hidden"><defs><clipPath id="clip0"><rect x="1556" y="1325" width="1288" height="493"/></clipPath></defs><g clip-path="url(#clip0)" transform="translate(-1556 -1325)"><path d="M2215.75 1420.14 2193.74 1484.2 2237.46 1484.2ZM2638.64 1401.59 2638.64 1515.41 2650.63 1515.41C2671.25 1515.41 2686.69 1508.57 2696.95 1494.89 2704.75 1484.46 2708.65 1472.3 2708.65 1458.43 2708.65 1444.55 2704.75 1432.44 2696.95 1422.11 2686.59 1408.43 2671.15 1401.59 2650.63 1401.59ZM2586.21 1358 2663.6 1358C2682.51 1358 2700.03 1363.25 2716.18 1373.76 2732.03 1383.97 2744.19 1397.61 2752.66 1414.69 2759.55 1428.83 2763 1443.41 2763 1458.43 2763 1479.34 2756.67 1498.7 2744.02 1516.52 2731.37 1534.34 2715.2 1546.68 2695.5 1553.55 2685.07 1557.18 2674.43 1559 2663.6 1559L2586.21 1559ZM2342.16 1358 2394.59 1358 2491.04 1480.96 2491.04 1358 2543.47 1358 2543.47 1559 2491.04 1559 2394.59 1435.9 2394.59 1559 2342.16 1559ZM2187.54 1358 2244.7 1358 2320.61 1559 2264.64 1559 2251.64 1523.95 2179.27 1523.95 2165.39 1559 2110 1559Z" fill="#487E41" fill-rule="evenodd"/><path d="M1931.01 1399.5 1931.01 1449.7 1948.48 1449.7C1959.84 1449.7 1967.64 1447.24 1971.89 1442.3 1975.74 1437.86 1977.66 1431.83 1977.66 1424.23 1977.66 1416.73 1975.47 1410.73 1971.07 1406.24 1966.68 1401.74 1959.2 1399.5 1948.63 1399.5ZM1878.59 1357.26 1962.01 1357.26C1985.74 1357.26 2003.75 1364.2 2016.05 1378.06 2026.68 1389.96 2032 1405.15 2032 1423.64 2032 1441.83 2027.72 1456.88 2019.15 1468.78 2008.03 1484.22 1989.57 1491.94 1963.79 1491.94L1931.01 1491.94 1931.01 1558.83 1878.59 1558.83ZM1688.05 1325 1713.57 1357.26 1714.52 1357.26 1714.52 1358.47 1739.09 1389.53 1714.52 1389.53 1714.52 1466.29C1714.52 1475.04 1714.67 1481.58 1714.97 1485.91 1715.95 1499.58 1722.2 1509.12 1733.72 1514.53 1738.44 1516.8 1743.66 1517.93 1749.37 1517.93 1762.17 1517.93 1771.81 1513.45 1778.31 1504.5 1783.13 1497.91 1785.54 1485.17 1785.54 1466.29L1785.54 1357.26 1837.96 1357.26 1837.96 1473.48C1837.96 1485.59 1836.98 1495.92 1835.01 1504.49 1831.96 1517.78 1824.67 1529.89 1813.15 1540.82 1796.81 1556.27 1774.96 1564 1747.6 1564 1719.74 1564 1697.99 1556.12 1682.34 1540.37 1674.07 1532.1 1668.41 1521.72 1665.36 1509.21 1663.19 1500.35 1662.11 1488.44 1662.11 1473.48L1662.11 1389.53 1637 1389.53 1662.11 1357.79 1662.11 1357.26 1662.52 1357.26Z" fill="#C39A2C" fill-rule="evenodd"/><path d="M1893.86 1639.82C1881.82 1639.82 1870.92 1643.2 1861.15 1649.97 1851.38 1656.73 1844.43 1665.74 1840.28 1677 1837.92 1683.42 1836.73 1689.93 1836.73 1696.55 1836.73 1710.18 1841.27 1722.37 1850.35 1733.13 1861.6 1746.47 1876.1 1753.13 1893.86 1753.13 1911.62 1753.13 1926.17 1746.52 1937.52 1733.28 1946.6 1722.72 1951.14 1710.47 1951.14 1696.55 1951.14 1682.33 1946.6 1670.04 1937.52 1659.67 1925.88 1646.44 1911.32 1639.82 1893.86 1639.82ZM2729.3 1595.06 2844 1595.06 2844 1638.79 2781.7 1638.79 2781.7 1673.21 2840.6 1673.21 2840.6 1716.94 2781.7 1716.94 2781.7 1752.98 2844 1752.98 2844 1796.71 2729.3 1796.71 2729.3 1595.06ZM2588.45 1595.06 2640.85 1595.06 2640.85 1752.98 2703.74 1752.98 2703.74 1796.71 2588.45 1796.71 2588.45 1595.06ZM2344.53 1595.06 2396.93 1595.06 2493.33 1718.41 2493.33 1595.06 2545.73 1595.06 2545.73 1796.71 2493.33 1796.71 2396.93 1673.21 2396.93 1796.71 2344.53 1796.71 2344.53 1595.06ZM2017.66 1595.06 2072.43 1595.06 2107.41 1725.36 2150.07 1595.06 2191.7 1595.06 2231.41 1725.36 2269.5 1595.06 2324.11 1595.06 2259.75 1796.71 2206.31 1796.71 2169.56 1679.86 2131.03 1796.71 2077.74 1796.71 2017.66 1595.06ZM1581.85 1595.06 1659.2 1595.06C1678.1 1595.06 1695.61 1600.33 1711.75 1610.86 1727.6 1621.11 1739.75 1634.8 1748.21 1651.93 1755.1 1666.12 1758.55 1680.74 1758.55 1695.81 1758.55 1716.79 1752.22 1736.22 1739.58 1754.09 1726.93 1771.97 1710.77 1784.35 1691.09 1791.25 1680.65 1794.89 1670.03 1796.71 1659.2 1796.71L1639.75 1796.71 1692.54 1732.4C1700.33 1721.93 1704.22 1709.73 1704.22 1695.81 1704.22 1681.89 1700.33 1669.74 1692.54 1659.37 1682.18 1645.65 1666.75 1638.79 1646.24 1638.79L1634.25 1638.79 1634.25 1752.98 1638.07 1752.98 1638.07 1753.45 1658.07 1753.45 1607.04 1818 1556 1753.45 1581.85 1753.45 1581.85 1595.06ZM1893.86 1589C1929.29 1589 1957.39 1600.77 1978.15 1624.31 1996.36 1644.99 2005.46 1669.07 2005.46 1696.55 2005.46 1723.93 1996.36 1747.96 1978.15 1768.64 1957.39 1792.18 1929.29 1803.95 1893.86 1803.95 1858.53 1803.95 1830.48 1792.18 1809.72 1768.64 1791.51 1747.96 1782.41 1723.93 1782.41 1696.55 1782.41 1684.04 1784.87 1671.21 1789.79 1658.07 1794.71 1644.92 1801.3 1633.66 1809.57 1624.31 1830.33 1600.77 1858.43 1589 1893.86 1589Z" fill="#336290" fill-rule="evenodd"/></g></svg>